<?xml version="1.0" encoding="utf-8"?>
<!-- Generator: Adobe Illustrator 14.0.0, SVG Export Plug-In . SVG Version: 6.00 Build 43363)  -->
<!DOCTYPE svg PUBLIC "-//W3C//DTD SVG 1.0//EN" "http://www.w3.org/TR/2001/REC-SVG-20010904/DTD/svg10.dtd">
<svg version="1.0" id="Layer_1" xmlns="http://www.w3.org/2000/svg" xmlns:xlink="http://www.w3.org/1999/xlink" x="0px" y="0px"
	 width="612px" height="792px" viewBox="0 0 612 792" enable-background="new 0 0 612 792" xml:space="preserve">
<g>
	<g>
		<circle fill="none" stroke="#006DB8" stroke-width="20" cx="288.985" cy="380.177" r="102.506"/>
		<path fill="#006DB8" d="M272.616,270.427c0,0,0.285-12.458,5.597-18.756h21.444c0,0,4.994,5.141,5.582,18.801"/>
		<path fill="#006DB8" d="M219.771,293.166c0,0-5.982-10.932-4.531-19.042l18.571-10.723c0,0,6.895,1.956,14.232,13.492"/>
		<path fill="#006DB8" d="M185.66,339.04c0,0-10.646-6.476-13.445-14.226l10.723-18.571c0,0,6.95-1.754,19.073,4.566"/>
		<path fill="#006DB8" d="M180.134,396.392c0,0-12.458-0.284-18.756-5.595v-21.446c0,0,5.142-4.993,18.801-5.582"/>
		<path fill="#006DB8" d="M202.872,449.242c0,0-10.932,5.979-19.042,4.529l-10.723-18.572c0,0,1.957-6.897,13.493-14.234"/>
		<path fill="#006DB8" d="M248.746,483.352c0,0-6.476,10.644-14.225,13.439l-18.572-10.718c0,0-1.754-6.95,4.568-19.074"/>
		<path fill="#006DB8" d="M305.912,489.19c0,0-0.286,12.458-5.598,18.757h-21.442c0,0-4.994-5.142-5.583-18.801"/>
		<path fill="#006DB8" d="M358.759,466.453c0,0,5.982,10.931,4.532,19.044l-18.572,10.721c0,0-6.896-1.956-14.232-13.492"/>
		<path fill="#006DB8" d="M392.871,420.577c0,0,10.643,6.476,13.441,14.228l-10.721,18.569c0,0-6.949,1.754-19.073-4.566"/>
		<path fill="#006DB8" d="M398.395,363.226c0,0,12.456,0.284,18.756,5.596v21.447c0,0-5.142,4.994-18.799,5.579"/>
		<path fill="#006DB8" d="M375.658,310.377c0,0,10.931-5.981,19.041-4.53l10.724,18.572c0,0-1.956,6.896-13.494,14.234"/>
		<path fill="#006DB8" d="M329.782,276.267c0,0,6.478-10.645,14.225-13.442l18.571,10.721c0,0,1.754,6.949-4.567,19.073"/>
	</g>
	<path fill="#E21B22" d="M300.487,464.908c0,0,5.92-16.888,28.201-29.525v-97.527c0,0-3.525-27.027-14.101-43.477h-14.1v76.377
		c0,0,5.583,7.931,5.583,19.094c0,11.163,0,28.789,0,28.789s-0.295,7.931-5.288,16.157h-22.666
		c-4.994-8.227-5.288-16.157-5.288-16.157s0-17.626,0-28.789c0-11.164,5.582-19.094,5.582-19.094v-76.377h-14.1
		c-10.575,16.449-14.101,43.477-14.101,43.477v97.527c23.821,13.645,28.201,29.525,28.201,29.525v6.607h22.033L300.487,464.908z"/>
</g>
</svg>
